<?xml version="1.0" encoding="utf-8"?>
<!DOCTYPE svg PUBLIC "-//W3C//DTD SVG 20010904//EN" "http://www.w3.org/TR/2001/REC-SVG-20010904/DTD/svg10.dtd">
<svg version="1.0" xmlns="http://www.w3.org/2000/svg" width="120px" height="141px" viewBox="0 0 120 141" preserveAspectRatio="xMidYMid meet">
 <g fill="#f8f7f9">
  <path d="M0 70.5 l0 -70.5 60 0 60 0 0 70.5 0 70.5 -60 0 -60 0 0 -70.5z m64 39 c0 -4.3 -0.4 -7.5 -1 -7.5 -0.6 0 -1 3.2 -1 7.5 0 4.3 0.4 7.5 1 7.5 0.6 0 1 -3.2 1 -7.5z m-20.8 -29.6 c0.2 -0.6 2.7 -1.4 5.6 -1.7 2.9 -0.2 5.5 -0.9 5.8 -1.4 0.7 -1.1 -9.4 0.1 -12 1.5 -1.1 0.5 -3.1 1.3 -4.5 1.8 -2.4 0.7 -2.3 0.7 1.1 0.8 2 0.1 3.8 -0.4 4 -1z m45.8 0.6 c0 -0.6 -9.1 -3.1 -14.3 -4 -2.7 -0.4 -3.7 -0.3 -3.2 0.4 0.3 0.6 2.3 1.1 4.4 1.1 2 0 4.6 0.7 5.7 1.5 1.7 1.3 7.4 2.1 7.4 1z m-45 -16.1 c0 -3.2 -0.6 -3 -1.8 0.5 -0.9 2.5 -0.8 2.9 0.4 2.4 0.8 -0.3 1.4 -1.6 1.4 -2.9z m40 0.2 c0 -1.5 -0.7 -2.6 -2 -2.9 -1.7 -0.4 -2 0 -2 2.4 0 2.2 0.5 2.9 2 2.9 1.4 0 2 -0.7 2 -2.4z m-20.1 -15.8 c-0.1 -0.7 -0.5 -2.4 -0.9 -3.8 -0.7 -2.2 -0.8 -2.1 -0.9 1.3 -0.1 2 0.4 3.7 0.9 3.7 0.6 0 1 -0.6 0.9 -1.2z m1.7 -26.3 c-1.1 -0.8 -2.3 -1.5 -2.6 -1.5 -0.3 0 -1.5 0.7 -2.6 1.5 -1.8 1.3 -1.6 1.4 2.6 1.4 4.2 0 4.4 -0.1 2.6 -1.4z"/>
 </g>
 <g fill="#3f1865">
  <path d="M2.7 133.5 c3.5 -9.8 5.5 -9.9 8.9 -0.5 2.8 7.7 2.8 8 0.9 8 -0.8 0 -1.5 -0.4 -1.5 -1 0 -0.5 -1.6 -1 -3.5 -1 -1.9 0 -3.5 0.5 -3.5 1 0 0.6 -0.9 1 -2 1 -1.8 0 -1.8 -0.3 0.7 -7.5z m6.3 1.3 c0 -1.6 -1.7 -4.4 -2.3 -3.8 -0.3 0.3 -0.8 1.5 -1.1 2.8 -0.6 1.8 -0.3 2.2 1.3 2.2 1.2 0 2.1 -0.6 2.1 -1.2z"/>
  <path d="M16 133.5 c0 -6 0.3 -7.5 1.5 -7.5 1 0 1.5 1 1.5 3.1 0 2.7 0.3 3 2.7 2.7 2.2 -0.2 2.8 -0.8 2.8 -2.8 0 -1.5 0.7 -2.6 1.8 -2.8 1.5 -0.3 1.7 0.6 1.7 7.2 0 7.1 -0.1 7.6 -2.1 7.6 -1.8 0 -2.1 -0.5 -1.7 -3 0.4 -2.7 0.2 -3 -2.4 -3 -2.4 0 -2.8 0.4 -2.8 3 0 2 -0.5 3 -1.5 3 -1.2 0 -1.5 -1.5 -1.5 -7.5z"/>
  <path d="M30.4 133.8 c0.1 -4.5 0.5 -7.3 1.3 -7.5 0.7 -0.3 1.3 0.8 1.5 2.4 0.2 2.2 0.9 2.9 3.1 3.1 2.4 0.3 2.7 0 2.7 -2.7 0 -2.1 0.5 -3.1 1.5 -3.1 1.2 0 1.5 1.5 1.5 7.5 0 6 -0.3 7.5 -1.5 7.5 -1 0 -1.5 -1 -1.5 -3.1 0 -2.7 -0.3 -3 -2.7 -2.7 -2.2 0.2 -2.9 0.9 -3.1 3.1 -0.2 1.5 -0.9 2.7 -1.6 2.7 -0.9 0 -1.2 -2.1 -1.2 -7.2z"/>
  <path d="M45 133.5 l0 -7.5 4.5 0 c3.3 0 4.5 0.4 4.5 1.5 0 1 -1 1.5 -3 1.5 -2 0 -3 0.5 -3 1.5 0 1 1 1.5 3 1.5 2 0 3 0.5 3 1.5 0 1 -1 1.5 -3 1.5 -2 0 -3 0.5 -3 1.5 0 1 1 1.5 3 1.5 2 0 3 0.5 3 1.5 0 1.1 -1.2 1.5 -4.5 1.5 l-4.5 0 0 -7.5z"/>
  <path d="M56 133.5 c0 -6 0.3 -7.5 1.5 -7.5 1 0 1.5 1 1.5 3 0 3.8 1 3.8 3.5 0 1.1 -1.6 2.8 -3 3.9 -3 1.6 0 1.6 0.3 -0.8 3.4 -1.4 1.9 -2.6 3.8 -2.6 4.2 0 0.4 1.1 2.2 2.6 4.1 3.4 4.5 0.5 4.6 -3.6 0.1 l-2.9 -3.3 -0.1 3.3 c0 2.2 -0.5 3.2 -1.5 3.2 -1.2 0 -1.5 -1.5 -1.5 -7.5z"/>
  <path d="M70 133.5 c0 -6 0.3 -7.5 1.5 -7.5 1.1 0 1.5 1.2 1.5 4.6 l0 4.7 3.5 -4.7 c2 -2.5 4 -4.6 4.5 -4.6 0.6 0 1 3.4 1 7.5 0 5.9 -0.3 7.5 -1.4 7.5 -1 0 -1.6 -1.4 -1.8 -4.2 l-0.3 -4.3 -3 4.2 c-4.4 6.3 -5.5 5.7 -5.5 -3.2z"/>
  <path d="M84.8 133.5 l0.4 -7.5 3.2 0 c5.5 0 8.6 4.1 6 7.8 -0.8 1.1 -2.7 2.2 -4.2 2.4 -1.9 0.2 -2.8 0.9 -3 2.6 -0.2 1.2 -0.9 2.2 -1.5 2.2 -0.9 0 -1.1 -2.2 -0.9 -7.5z m6.6 -1.1 c1.9 -1.8 1.2 -3.4 -1.4 -3.4 -2.2 0 -3.4 1.5 -2.6 3.5 0.7 1.9 2.1 1.9 4 -0.1z"/>
  <path d="M98.2 137.2 l2.2 -3.9 -2.3 -3.6 c-2.3 -3.7 -2.3 -3.7 -0.2 -3.7 1.2 0 2.1 0.3 2.1 0.8 0 0.4 0.4 1.4 0.9 2.1 0.8 1.2 1.3 1.1 2.9 -1 2.7 -3.3 4 -1.6 1.8 2.2 -1.8 3.1 -1.8 3.2 0.3 7 2.2 3.8 2.2 3.9 0.2 3.9 -1.1 0 -2.2 -0.9 -2.6 -2 -0.3 -1.1 -1 -2 -1.5 -2 -0.5 0 -1.2 0.9 -1.5 2 -0.4 1.1 -1.5 2 -2.6 2 -1.9 0 -1.9 -0.1 0.3 -3.8z"/>
  <path d="M110 133.5 l0 -7.6 4.8 0.3 c5.3 0.3 6.4 2.1 1.5 2.6 -3.9 0.4 -4.5 2.9 -0.8 3.4 1.4 0.2 2.6 0.8 2.6 1.3 0 0.6 -1.2 1.1 -2.6 1.3 -3.6 0.5 -3.4 3.7 0.3 3.7 4.8 0 3.9 2 -1 2.3 l-4.8 0.3 0 -7.6z"/>
  <path d="M34 120.2 l-2.5 -0.3 0.3 -17.9 c0.3 -16.2 0.1 -18 -1.4 -18 -1.5 0 -1.6 1.8 -1.2 18 l0.3 18 -3.2 0 c-3.1 0 -3.2 -0.1 -2.6 -3.2 0.3 -1.8 0.7 -10.5 0.7 -19.3 0.1 -13.7 -0.2 -16.4 -1.6 -18.7 -2.1 -3 -2.3 -4.8 -0.7 -4.8 0.8 0 0.9 -1.1 0.5 -3.1 l-0.6 -3.2 4.5 0.5 c4.2 0.5 4.5 0.4 4.5 -1.9 0 -1.4 -0.4 -2.1 -1 -1.8 -2.2 1.4 -0.8 -0.3 2.1 -2.4 l3.1 -2.3 -0.4 2.8 c-0.5 4.1 2.6 4.5 4 0.5 0.6 -1.7 0.8 -3.1 0.4 -3.2 -0.4 0 0.9 -0.6 2.8 -1.3 l3.5 -1.3 0 -9.2 0 -9.2 3.5 -2.2 c3 -1.9 4.9 -2.2 13.5 -2.2 7.4 0 10.8 0.4 13.3 1.7 3.2 1.7 4.4 1 1.8 -1.1 -2.5 -2.1 -7.9 -3.2 -15.2 -3.2 -7.9 0.1 -11.8 1.2 -15.1 4.3 -2.1 2 -2.3 2 -2.9 0.3 -0.4 -1 -0.3 -2.5 0.3 -3.4 1.2 -1.9 6.5 -5 7.6 -4.4 0.4 0.3 0.7 0.1 0.6 -0.4 -0.5 -2.9 0.6 -5.1 4.2 -8.4 3.3 -3.1 4.1 -4.5 4.1 -7.3 0 -3.3 1.2 -5.5 2.4 -4.3 0.3 0.3 0.7 2.4 0.9 4.8 0.3 2.4 1 4.6 1.7 4.8 2.4 0.8 5.9 5.1 6.4 8.1 0.4 1.6 1 2.8 1.3 2.5 1.1 -0.6 7.1 3.3 7.8 5.1 0.3 0.9 0.1 2.5 -0.6 3.6 -0.6 1 -0.9 2.3 -0.6 2.8 0.3 0.5 0.2 1.1 -0.2 1.3 -0.5 0.3 -0.7 4.1 -0.5 8.5 l0.3 8 3.5 0.6 c2.4 0.5 3.4 1.2 3.4 2.6 0 2.9 1.1 5 2.6 5 0.8 0 1.4 -1 1.4 -2.5 0 -2.2 0.2 -2.4 2.3 -1.4 1.9 0.8 2.2 1.7 1.9 4.1 l-0.5 3 4.7 -0.6 c4.9 -0.7 5.2 -0.5 3.5 2.5 -0.8 1.5 -0.7 2.4 0.2 3.5 1 1.2 0.9 2.1 -0.5 4.6 -1.6 2.6 -1.8 5.1 -1.5 21.6 0.2 10.3 0.1 18.8 -0.3 19 -0.5 0.1 -1.6 0.2 -2.6 0.2 -1.7 0 -1.8 -1.1 -1.4 -17.1 0.4 -13.6 0.2 -17.3 -0.9 -17.9 -0.7 -0.5 -1.7 -0.6 -2.2 -0.3 -0.5 0.3 -0.8 8.2 -0.6 18.2 l0.4 17.6 -2.5 0 -2.5 0 0.3 -17 c0.2 -9.3 -0.1 -17.4 -0.5 -18 -0.4 -0.5 -1.6 -1.1 -2.5 -1.1 -1.7 -0.2 -1.8 1.3 -1.9 17.5 -0.1 9.7 -0.1 18 0 18.4 0.1 0.4 -1.6 0.6 -3.6 0.3 -2.1 -0.3 -4.1 -0.5 -4.5 -0.5 -0.5 -0.1 -0.8 -4.8 -0.8 -10.5 0 -7.4 0.4 -10.7 1.3 -11.5 0.8 -0.6 1.7 -0.8 2 -0.4 0.4 0.3 0.8 5.4 0.9 11.2 0.1 8.7 0.3 7.5 0.8 -6.9 0.6 -16.5 0.6 -17.6 -1.3 -19.2 -1 -1 -2.8 -1.8 -3.9 -1.8 -2 0 -2 0.5 -1.6 19.5 l0.4 19.5 -2.6 0 -2.5 0 0 -20.2 0 -20.3 -5.3 -0.3 c-7.4 -0.4 -7.1 -1.7 -6.2 30.3 0.3 11.1 0.6 10.5 -4.9 10.5 l-5 0 -0.4 -4.7 -0.3 -4.8 -0.2 4.8 c-0.1 3.4 -0.6 4.7 -1.4 4.5 -1 -0.4 -1.4 -5.1 -1.6 -18.1 l-0.2 -17.7 -3.1 0 -3.1 0 0.3 17.9 c0.2 9.9 0.2 18.1 -0.1 18.3 -0.3 0.2 -1.6 0.2 -3 0z m18 -3.4 c-0.1 -1.3 0 -9.7 0 -18.7 0.1 -8.9 -0.1 -16.5 -0.3 -16.7 -0.3 -0.3 -1.6 -0.2 -3.1 0.2 -2.6 0.6 -2.6 0.7 -2.6 9.7 0 8.1 0.2 8.9 1.4 7.1 2 -2.7 2.6 -0.9 3.1 10.6 0.4 10.8 0.3 10 1 10 0.3 0 0.5 -1 0.5 -2.2z m44.8 -38.5 c-0.2 -1 -1.7 -2.7 -3.5 -3.9 -5 -3.4 -14.4 -4.9 -30.3 -4.9 -16.3 0 -27.2 2.1 -31.8 6 -3 2.6 -2.4 4.4 1.1 2.8 9.9 -4.6 10.1 -4.6 26.2 -5 17.4 -0.5 27.9 0.9 33.9 4.6 3.9 2.4 4.8 2.5 4.4 0.4z m-32.3 -14.4 c7.2 0 12.5 -0.3 11.9 -0.5 -0.6 -0.2 -0.9 -1.8 -0.6 -3.4 0.2 -1.6 0.8 -2.7 1.3 -2.4 1.1 0.6 1.2 -1 0.2 -2 -0.4 -0.4 -0.6 -3.8 -0.5 -7.7 0.2 -4.4 0 -6.9 -0.7 -6.9 -0.7 0 -1.1 2.7 -1.1 6.9 l0 6.9 -3.7 -1 c-2.1 -0.6 -6.7 -0.8 -10.3 -0.6 l-6.5 0.5 0.2 -7.9 c0.2 -4.5 -0.2 -7.8 -0.7 -7.8 -0.6 0 -1 3.5 -1 8 0 7.6 -0.1 8 -2.7 9.4 -1.6 0.8 -2.2 1.5 -1.5 1.6 1.8 0 1.6 6 -0.3 6 -0.8 0 -1.5 0.5 -1.5 1.1 0 0.7 0.9 0.9 2.3 0.5 1.2 -0.3 8.1 -0.6 15.2 -0.7z m-14.8 -17.6 c-0.2 -1.6 -0.4 -0.3 -0.4 2.7 0 3 0.2 4.3 0.4 2.8 0.2 -1.6 0.2 -4 0 -5.5z m22.8 -0.7 c0.2 -3.6 0 -6.8 -0.5 -7.1 -0.6 -0.4 -1 2.5 -1 7.1 0 9.2 1 9.3 1.5 0z m-12.3 -6.3 c3 -3.6 6.4 -0.1 6.7 6.8 0.1 2.9 0.4 5.5 0.7 5.8 0.3 0.3 0.4 -2.8 0.2 -6.9 l-0.3 -7.5 -4.7 -0.3 -4.8 -0.3 0.2 7.8 c0.2 7.3 0.2 7.4 0.5 1.8 0.2 -3.2 0.9 -6.5 1.5 -7.2z m11.8 -11.3 c0 -0.6 -3.1 -0.9 -7.7 -0.8 l-7.8 0.2 7.5 0.6 c4.1 0.4 7.6 0.7 7.8 0.8 0.1 0.1 0.2 -0.2 0.2 -0.8z"/>
  <path d="M54 59.1 l0 -2.8 9 -0.2 9 -0.2 0 3 0 3.1 -9 0 -9 0 0 -2.9z"/>
  <path d="M58.5 110 c0 -8 0.3 -10.2 1.7 -11.6 1.4 -1.5 2.2 -1.6 4.3 -0.6 2.4 1.1 2.5 1.4 2.5 11.7 l0 10.5 -4.2 0 -4.3 0 0 -10z"/>
 </g>
</svg>